<?xml version="1.0" encoding="utf-8"?>
<!-- Generator: Adobe Illustrator 27.0.1, SVG Export Plug-In . SVG Version: 6.00 Build 0)  -->
<svg version="1.1" id="_x32_030" xmlns="http://www.w3.org/2000/svg" xmlns:xlink="http://www.w3.org/1999/xlink" x="0px" y="0px"
	 viewBox="0 0 1488 748.1" style="enable-background:new 0 0 1488 748.1;" xml:space="preserve">
<style type="text/css">
	.st0{fill:#FFFFFF;}
</style>
<g>
	<path class="st0" d="M1060.9,565.2v1.1c0,71.8-52.3,124.6-137.3,124.6c-68.7,0-116.1-27.2-148.8-65.8l57.8-54.9
		c26.2,29.4,53.4,45.7,92.1,45.7c31.6,0,54-17.9,54-46.2c-0.4-0.7,6.2-49.5-74.7-49.5H869l-13.1-53.3l122.4-122.9l-49,31.5H797.1
		v-71.8h257.8v63.1l-96.5,91.9C1010.2,467.3,1060.9,494.5,1060.9,565.2 M821.6,129.5c0-34.5,24.8-62.2,59.5-62.2h39.2L910,72.4
		c0.5,94.5-1.9,106.4,4.2,120.2l-32.6,0c-34.8,0-59.9-28.2-59.9-62.6V129.5z M881.1,208.4h34.8v-12.5c2.5,4.4,5.9,7.8,11,10.2
		c11.1,5.2,3,1.9,320.2,2.9V51.4h-16.7v140.9c0,0-290,1.1-295.6-1.4c-4.8-2.2-6.5-7.1-7.3-12.3c-1.3-8.5-0.5-8.7-0.7-127.2h-45.2
		c-46.3,0-77.8,36.6-77.8,78.5v0.4C803.8,172.2,834.9,208.4,881.1,208.4 M1370.4,34.7h-36.7c0.8-12.1-4.8-34.7,19.9-34.7h11.8v11.6
		c-11.4,0.8-18-2.8-18,6.3v3.9h23V34.7z M1412.8,210.7c-4.5,0-9-0.6-13.6-1.9l4.4-16.1c7.6,2.2,17.2,2.3,21.2-4.5
		c4.7-8,3-10.8,3.2-136.8h16.7c-0.5,117.6,1.2,120.9-1.6,134.5C1440,201.9,1430.3,210.7,1412.8,210.7 M926.8,34.7H910V18h16.7V34.7z
		 M1295,92.3c7.9-15.3,24.3-23.8,41.2-24v0h27l-9.6,4.8v75c-13.2-0.4-22.4,1.3-34.6-2.6c-16.6-5.2-27.9-18-27.9-36.6
		C1291.1,102.9,1292.4,97.4,1295,92.3 M1295,151.5c21.8,15.5,51.5,13,53,13.3l5.6-11.8c-0.9,11.4,3.1,27.4-7.5,35.4
		c-9,6.7-25.1,6.5-35,4.2c-4.1-1-8.8-2.6-14.1-5l-5.2,16.1c10.6,3.9,20.7,7.1,32,7.1c16.3,0,28.2-3.9,35.6-11.6
		c7.4-7.7,11.1-18.1,11.1-31.2V51.4c-20.6,0.6-36.2-2.1-55,4.4C1265.1,73.1,1264.1,129.5,1295,151.5 M893.3,34.7h-16.7V18h16.7V34.7
		z M720.1,51.2h17.3v156.8h-14.1L612,67l9.8,22.9v118.2h-17.3V51.2h16.6l106.3,134.9l-7.3-19.2V51.2z M67.6,209.2L0,51.2h19.8
		c1,2.4,54.8,132.6,60.3,145.8l-1.7-17.2l53.4-128.5h19.1L83.3,209.2H67.6z M366.9,51.2h17.7v156.8h-17.7V51.2z M557.1,130.1
		c0,35.6-25.6,64.3-61.5,64.3c-35.9,0-61.9-29.1-61.9-64.7v-0.5c0-35.6,25.6-64.3,61.5-64.3c35.9,0,61.9,29.1,61.9,64.7V130.1z
		 M495.6,48.6c-47.8,0-80.4,37.9-80.4,81.1v0.4c0,43.2,32.1,80.6,79.9,80.6s80.4-37.9,80.4-81.1v-0.5
		C575.5,86,543.4,48.6,495.6,48.6 M337.7,165.5v0.4c0,26.9-22.4,44.4-53.6,44.4c-24.9,0-45.3-8.3-64.2-25.1l11-13
		c16.4,14.8,32.1,22.2,53.9,22.2c21.1,0,35-11.2,35-26.7v-0.4c0-43.8-93.6-14.9-93.6-75.1v-0.4c0-24.6,21.8-42.8,51.6-42.8
		c22.9,0,39.3,6.5,55.2,19.3l-10.3,13.7c-35.6-29-78.8-17.9-78.8,8.3v0.4c0,14.8,8.1,23.1,42.6,30.5
		C321.5,128.8,337.7,141.5,337.7,165.5 M192.6,208.1h-17.7V51.3h17.7V208.1z M1224.5,225.7h16.7v16.7h-16.7V225.7z M1191.1,225.7
		h16.7v16.7h-16.7V225.7z M140.3,612h145.5v72.4H3.5V618c141.1-119.7,192.9-143.1,192.9-195.3c0-32.1-21.3-49.5-51.2-49.5
		c-29.4,0-49.6,16.3-77.9,51.1L8.4,377c37.6-51.1,74.1-78.9,142.2-78.9c79,0,131.3,46.2,131.3,117.5v1.1
		c0,89.4-67.6,118.2-183.7,211.6l-16.2,12.5L140.3,612z M1400.3,495.1c0,65.3-46.9,118.6-114.5,118.6
		c-67.6,0-115.5-54.4-115.5-119.7v-1.1c0-65.3,46.9-118.6,114.5-118.6c67.6,0,115.5,54.4,115.5,119.7V495.1z M1285.8,297.1
		c-117.7,0-203.3,88.7-203.3,196.9v1.1c0,108.2,84.5,195.8,202.2,195.8c117.7,0,203.3-88.7,203.3-196.9v-1.1
		C1488,384.6,1403.5,297.1,1285.8,297.1"/>
	<path class="st0" d="M513.8,272l19.3,18.5l-18.5,19.3l-19.3-18.5"/>
	<path class="st0" d="M558,291.3l19.3,18.5l18.5-19.3L576.6,272"/>
	<path class="st0" d="M530.8,315.6l15.1,14.4l14.4-15l-15-14.4"/>
	<path class="st0" d="M586,323.8l15,14.4l14.4-15l-15-14.4"/>
	<path class="st0" d="M506.2,338.5l15,14.4l14.4-15l-15-14.4"/>
	<path class="st0" d="M556.7,340.3l15,14.4l14.4-15l-15-14.4"/>
	<path class="st0" d="M537,357.6l10.6,10.1l10.2-10.6L547.1,347"/>
	<path class="st0" d="M576.9,365.5l10.6,10.1l10.2-10.6L587,355"/>
	<path class="st0" d="M664.1,285.2l32.8-6l6,32.8l-32.8,6L664.1,285.2z"/>
	<path class="st0" d="M621.2,298.9l26.3-4.8l4.8,26.3l-26.3,4.8L621.2,298.9z"/>
	<path class="st0" d="M672.1,335.5l26.3-4.8l4.8,26.3l-26.3,4.8L672.1,335.5z"/>
	<path class="st0" d="M635.8,339.4l20.5-3.8l3.7,20.5l-20.5,3.8L635.8,339.4z"/>
	<path class="st0" d="M675.7,378.3l20.5-3.8L700,395l-20.5,3.8L675.7,378.3z"/>
	<path class="st0" d="M605.1,347.7l20.5-3.8l3.8,20.5l-20.5,3.8L605.1,347.7z"/>
	<path class="st0" d="M642.3,374.5l20.5-3.8l3.8,20.5l-20.5,3.8L642.3,374.5z"/>
	<path class="st0" d="M616.2,377l14.4-2.6l2.6,14.4l-14.4,2.6L616.2,377z"/>
	<path class="st0" d="M643.9,406.8l14.4-2.6l2.6,14.4l-14.4,2.6L643.9,406.8z"/>
	<path class="st0" d="M761.7,392.5l-14.3,30.1l30.1,14.3l14.3-30.1"/>
	<path class="st0" d="M718.9,378.6l-11.5,24.1l24.2,11.5l11.5-24.1"/>
	<path class="st0" d="M738.7,438.1l-11.5,24.1l24.2,11.5l11.5-24.1"/>
	<path class="st0" d="M707,420l-9,18.8l18.8,8.9l9-18.8"/>
	<path class="st0" d="M716.6,474.8l-9,18.8l18.8,8.9l9-18.8"/>
	<path class="st0" d="M677.2,408.8l-9,18.8l18.8,8.9l9-18.8"/>
	<path class="st0" d="M691.7,452.3l-9,18.8l18.8,8.9l9-18.8"/>
	<path class="st0" d="M669,439l-6.3,13.2l13.2,6.3l6.3-13.2"/>
	<path class="st0" d="M667.7,492.5l6.3-13.2l13.2,6.3l-6.3,13.2L667.7,492.5z"/>
	<path class="st0" d="M777.9,536.6l-29.3,16l16.1,29.2l29.3-16"/>
	<path class="st0" d="M751.4,500.3l-23.5,12.9l12.9,23.4l23.5-12.9"/>
	<path class="st0" d="M732.6,560.1l-23.5,12.9l12.9,23.4l23.5-12.9"/>
	<path class="st0" d="M717.5,526.9l-18.3,10l10,18.2l18.3-10"/>
	<path class="st0" d="M693.1,576.9l-18.3,10l10,18.2l18.3-10"/>
	<path class="st0" d="M699.9,500.4l-18.3,10l10,18.3l18.3-10"/>
	<path class="st0" d="M686.1,544.1l-18.3,10l10,18.2l18.3-10"/>
	<path class="st0" d="M675.5,520.2l-12.9,7l7.1,12.8l12.9-7"/>
	<path class="st0" d="M656,555.8l-12.9,7l7,12.8l12.9-7"/>
	<path class="st0" d="M669.4,691.7l4.1-33.1l33.1,4.1l-4.1,33.1L669.4,691.7z"/>
	<path class="st0" d="M676.6,641.2l3.3-26.5l26.6,3.3l-3.3,26.5L676.6,641.2z"/>
	<path class="st0" d="M626.3,678.7l3.3-26.5l26.6,3.3l-3.3,26.5L626.3,678.7z"/>
	<path class="st0" d="M640.1,637.9l2.6-20.7l20.7,2.6l-2.6,20.7L640.1,637.9z"/>
	<path class="st0" d="M591,664.2l2.6-20.7l20.7,2.6l-2.6,20.7L591,664.2z"/>
	<path class="st0" d="M641.3,606.1l2.6-20.7l20.7,2.6l-2.6,20.7L641.3,606.1z"/>
	<path class="st0" d="M604.6,633.5l2.6-20.7l20.7,2.6l-2.6,20.7L604.6,633.5z"/>
	<path class="st0" d="M616.9,602.6l1.8-14.5l14.5,1.8l-1.8,14.5L616.9,602.6z"/>
	<path class="st0" d="M580.1,620l1.8-14.5l14.6,1.8l-1.8,14.5L580.1,620z"/>
	<path class="st0" d="M574.8,723.7L550.4,701l-22.7,24.4l24.5,22.7"/>
	<path class="st0" d="M570.3,257.1l-24.5-22.7l-22.7,24.4l24.5,22.7"/>
	<path class="st0" d="M600.9,687.1l-19.6-18.2l-18.2,19.6l19.6,18.2"/>
	<path class="st0" d="M538.2,688.1L518.5,670l-18.2,19.6l19.6,18.2"/>
	<path class="st0" d="M565,663.4l-15.3-14.2l-14.2,15.2l15.3,14.2"/>
	<path class="st0" d="M509.7,656.1l-15.3-14.2l-14.2,15.2l15.3,14.2"/>
	<path class="st0" d="M584.6,638.4l-15.3-14.2l-14.2,15.2l15.3,14.2"/>
	<path class="st0" d="M538.7,639.1L523.4,625l-14.2,15.2l15.3,14.2"/>
	<path class="st0" d="M558.1,621.5l-10.7-10l-10,10.7l10.7,10"/>
	<path class="st0" d="M518.1,614.2l-10.7-10l-10,10.7l10.7,10"/>
	<path class="st0" d="M393,669.9l32.7-6.6l6.5,32.7l-32.7,6.6L393,669.9z"/>
	<path class="st0" d="M443.4,660.6l26.2-5.3l5.3,26.2l-26.2,5.3L443.4,660.6z"/>
	<path class="st0" d="M391.9,624.8l26.2-5.3l5.3,26.2l-26.2,5.3L391.9,624.8z"/>
	<path class="st0" d="M435.1,625l20.4-4.1l4.1,20.4l-20.4,4.1L435.1,625z"/>
	<path class="st0" d="M465.6,616.2l20.4-4.1l4.1,20.4l-20.4,4.1L465.6,616.2z"/>
	<path class="st0" d="M428,590l20.4-4.1l4.1,20.4l-20.4,4.1L428,590z"/>
	<path class="st0" d="M461.3,592l14.4-2.9l2.9,14.4l-14.4,2.9L461.3,592z"/>
	<path class="st0" d="M433.1,562.6l14.4-2.9l2.9,14.4L436,577L433.1,562.6z"/>
	<path class="st0" d="M332.9,590.3l13.8-30.3l-30.4-13.8l-13.8,30.3"/>
	<path class="st0" d="M375.9,603.5l11.1-24.3l-24.4-11.1l-11.1,24.3"/>
	<path class="st0" d="M355.1,544.4l11.1-24.3L341.8,509l-11.1,24.3"/>
	<path class="st0" d="M368.1,553.3l8.6-18.9l19,8.6l-8.6,18.9L368.1,553.3z"/>
	<path class="st0" d="M412.5,609.3l8.6-18.9l-19-8.6l-8.6,18.9"/>
	<path class="st0" d="M357.7,498.6l8.6-18.9l19,8.7l-8.6,18.9L357.7,498.6z"/>
	<path class="st0" d="M398.1,564l8.6-18.9l19,8.7l-8.6,18.9L398.1,564z"/>
	<path class="st0" d="M382.9,520.8l8.6-18.9l19,8.7l-8.6,18.9L382.9,520.8z"/>
	<path class="st0" d="M424.7,542.3l6.1-13.3l-13.3-6.1l-6.1,13.3"/>
	<path class="st0" d="M419,502l6.1-13.3l-13.3-6.1l-6.1,13.3"/>
	<path class="st0" d="M314.2,446.5l29-16.5l-16.5-28.9l-29,16.5"/>
	<path class="st0" d="M341.4,482.3l23.3-13.2l-13.3-23.2l-23.3,13.2"/>
	<path class="st0" d="M359.2,422.3l23.3-13.2l-13.3-23.2l-23.3,13.2"/>
	<path class="st0" d="M374.8,455.2l18.1-10.3l-10.3-18.1l-18.1,10.3"/>
	<path class="st0" d="M398.4,404.8l18.1-10.3l-10.3-18.1L388,386.7"/>
	<path class="st0" d="M392.9,481.4l18.1-10.3L400.6,453l-18.1,10.3"/>
	<path class="st0" d="M405.9,437.4l18.1-10.3l-10.3-18.1l-18.1,10.3"/>
	<path class="st0" d="M416.9,461.2l12.7-7.3l-7.3-12.7l-12.7,7.2"/>
	<path class="st0" d="M435.8,425.3l12.7-7.3l-7.3-12.7l-12.7,7.3"/>
	<path class="st0" d="M383.4,319.1L387,286l33.2,3.5l-3.5,33.1L383.4,319.1z"/>
	<path class="st0" d="M384.4,364l2.8-26.6l26.6,2.8l-2.8,26.6L384.4,364z"/>
	<path class="st0" d="M434.1,325.7l2.8-26.6l26.6,2.8l-2.8,26.6L434.1,325.7z"/>
	<path class="st0" d="M427.5,361.5l2.2-20.7l20.7,2.2l-2.2,20.7L427.5,361.5z"/>
	<path class="st0" d="M476.1,334.3l2.2-20.7l20.7,2.2l-2.2,20.7L476.1,334.3z"/>
	<path class="st0" d="M426.7,393.3l2.2-20.7l20.7,2.2l-2.2,20.7L426.7,393.3z"/>
	<path class="st0" d="M463.1,365.2l2.2-20.7l20.7,2.2l-2.2,20.7L463.1,365.2z"/>
	<path class="st0" d="M458,391l1.6-14.6l14.6,1.6l-1.6,14.6L458,391z"/>
	<path class="st0" d="M494.5,372.9l1.5-14.6l14.6,1.6l-1.5,14.6L494.5,372.9z"/>
	<path class="st0" d="M652,511.7c-17.5-10.1-41.8-13-67-3.8c-11,4.2-22,11.4-31.3,18.5c-5.9-35.5-3-68.5-1.6-84.7
		c0-0.1,0.1-0.1,0.2-0.1c12.6,7.9,9.1,30,6.4,36.3c-0.1,0.1,0.1,0.2,0.2,0.1c15.7-18.5,8-38.9,4.8-44.1c-0.6-0.9,3,1.9,5.9,5.6
		c11,13.9,5.9,29.6,7.1,29.2c0,0,0.1,0,0.1,0c7.3-14.3,4.9-32.4-10-45.5c-0.7-0.6,2,0.3,2.8,0.6c12.8,4.4,19.4,17.6,19.3,29.3
		c0,2.6,8.6-22-12.2-34.5c-3.9-2.3-7.9-3.6-10.5-3.9c-2-0.2,11.2-2.2,20.4,4.1c5.6,3.8,7,8.3,6.9,7c-1.6-16.5-21-23-32.8-18
		c-1.2,0.6,4.6-8.1,16-7.4c2.2,0.1,4.2,0.6,5.8,1.4c0.1,0.1,0.2-0.1,0.1-0.2c-8.6-9.8-22.7-10-30.2,1.3c-0.1,0.1-0.2,0.1-0.2,0
		c-2.8-5.1-5.2-11.6-6.2-17.8c-0.2-1.6-0.8,7.6-6.5,17.8c0,0.1-0.1,0.1-0.2,0c-7.5-11.4-21.6-11.2-30.2-1.3c-0.1,0.1,0,0.2,0.1,0.2
		c5.7-2.7,16.6-1.9,22,5.9c0.1,0.1,0,0.2-0.2,0.2c-12.1-5.1-31.2,1.8-32.8,18c0,0.1,0.2,0.2,0.2,0.1c0.5-1,1.9-3.2,4.4-5.4
		c9.7-8.5,25-6.1,22.7-5.8c-6,0.7-18.2,6-22.7,18.2c-3.7,9.9-0.1,23,0,19.7c0.1-11,6.4-25.8,22-29.6c0.1,0,0.2,0.1,0.1,0.2
		c-24.3,21.3-9.6,47.5-9.8,45.4c-0.7-8.5-1.4-23.5,12.6-34.9c0.1-0.1,0.3,0,0.2,0.1c-3.2,5.2-10.9,25.6,4.8,44.1
		c0.1,0.1,0.3,0,0.2-0.1c-2.6-6.3-6.2-28.4,6.4-36.3c0.1-0.1,0.2,0,0.2,0.1c1.4,16.2,4.2,49.1-1.6,84.7
		c-19.9-15.2-39.5-25.2-64.8-24.1c-12.7,0.6-24.8,4.3-33.5,9.3c-0.3,0.2-0.1,0.6,0.3,0.5c36.7-11.7,68.5,2.5,98.1,27.1
		c-14.9,13-28.5,26.6-36.4,30.7c-1.8-2.5-5-4-8.5-3.2c-6.6,1.4-8.1,9.7-4.6,13.2c12.9,12.9,33.1-12.7,57.2-34
		c23.2,20.5,44.3,46.9,57.2,34c1-1,2.2-4.4,1.6-7.1c-1.6-6.7-10.5-8.7-14.7-2.9c-7.6-3.8-20.9-17.3-36.4-30.7
		c29.8-24.8,61.2-38.7,98.1-27.1C652.1,512.3,652.3,511.9,652,511.7"/>
</g>
</svg>
